<svg width="106" height="22" viewBox="0 0 106 22" fill="none" xmlns="http://www.w3.org/2000/svg">
<path d="M14.5741 21.4888C14.5741 21.7627 14.3608 22 14.112 22H0.497653C0.231053 22 0 21.7627 0 21.4888V0.529461C0 0.255602 0.231053 0.0182572 0.497653 0.0182572H13.6144C13.881 0.0182572 14.112 0.255602 14.112 0.529461V3.52365C14.112 3.79751 13.881 3.99834 13.6144 3.99834H3.87458V9.01909H13.1167C13.3833 9.01909 13.6144 9.21992 13.6144 9.49378V12.488C13.6144 12.7801 13.3833 12.9992 13.1167 12.9992H3.87458V17.9834H14.112C14.3608 17.9834 14.5741 18.2207 14.5741 18.4946V21.4888ZM31.9209 0.529461C31.9209 0.60249 31.9209 0.657262 31.9031 0.730291L31.8498 0.80332L26.4467 11.4656L25.6291 13.127L21.2924 21.6349L21.2746 21.7261C21.2746 21.7444 21.2746 21.7444 21.2569 21.7444C21.168 21.8722 21.0258 21.9817 20.8481 21.9817H17.56C17.2934 21.9817 17.0979 21.7444 17.0979 21.434C17.0979 21.3793 17.0979 21.3427 17.1157 21.288L17.1868 21.1237L22.2166 11.21L17.1157 0.785062C17.0979 0.675518 17.0624 0.60249 17.0624 0.529461C17.0624 0.474689 17.0624 0.40166 17.0979 0.346888L17.169 0.20083C17.2757 0.0730293 17.4001 0 17.56 0H20.7948C20.9725 0 21.1502 0.0912865 21.2213 0.255602L24.4383 6.84647L27.7264 0.328631C27.7441 0.292116 27.7441 0.273859 27.7441 0.273859L27.7975 0.20083C27.8685 0.0730293 28.0107 0 28.1707 0H31.4588C31.7254 0 31.9209 0.255602 31.9209 0.529461ZM47.3836 3.48714C47.3836 3.77925 47.0993 3.99834 46.7793 3.99834H42.0339V21.361C42.0339 21.6896 41.8028 21.9817 41.554 21.9817H38.6214C38.3726 21.9817 38.1415 21.6896 38.1415 21.361V3.99834H33.2894C33.0228 3.99834 32.7918 3.77925 32.7918 3.48714V0.511204C32.7918 0.219088 33.0228 0.0182572 33.2894 0.0182572H46.7793C47.0993 0.0182572 47.3836 0.219088 47.3836 0.511204V3.48714ZM64.5704 21.4705C64.5704 21.7444 64.3394 21.9817 64.0905 21.9817H61.1579C60.9091 21.9817 60.6958 21.7444 60.6958 21.4705V12.9809H53.8709V21.4705C53.8709 21.7444 53.6754 21.9817 53.391 21.9817H50.494C50.2096 21.9817 49.9963 21.7444 49.9963 21.4705V0.60249C49.9963 0.273859 50.2096 0 50.494 0H53.391C53.6754 0 53.8709 0.273859 53.8709 0.60249V8.98257H60.6958V0.60249C60.6958 0.273859 60.9091 0 61.1579 0H64.0905C64.3394 0 64.5704 0.273859 64.5704 0.60249V21.4705ZM77.385 22C71.4842 22 66.6854 17.0705 66.6854 11.0091C66.6854 4.94772 71.4842 0.0182572 77.385 0.0182572C83.2857 0.0182572 88.0845 4.94772 88.0845 11.0091C88.0845 17.0705 83.2857 22 77.385 22ZM77.385 3.99834C73.6348 3.99834 70.56 7.15685 70.56 11.0091C70.56 14.8614 73.6348 17.9834 77.385 17.9834C81.1351 17.9834 84.1744 14.8614 84.1744 11.0091C84.1744 7.15685 81.1351 3.99834 77.385 3.99834ZM105.147 21.1784L101.201 13.9668L100.65 12.9992L100.526 12.7801C104.134 11.9585 106 9.21992 106 6.5361C106 4.76515 105.2 3.08548 103.832 1.91701C102.445 0.675519 100.473 0.0365145 98.2153 0.0365145H90.946C90.6794 0.0365145 90.4484 0.273859 90.4484 0.529461V2.55602L90.6972 3.01245V3.03071L94.003 9.01909H90.4484V21.4888C90.4484 21.7627 90.6794 22 90.946 22H93.8608C94.1097 22 94.3229 21.7627 94.3229 21.4888V12.9992H96.1891L96.7223 13.9668L100.97 21.6896L101.023 21.7627C101.095 21.8905 101.255 22 101.414 22H104.756C105.022 22 105.236 21.7627 105.236 21.4705C105.236 21.3793 105.236 21.3062 105.182 21.2332L105.147 21.1784ZM97.9309 8.06971L95.727 4.03486H98.2153C100.899 4.03486 102.09 5.33112 102.09 6.5361C102.09 7.55851 101.201 8.69046 99.175 8.96432C98.9618 8.98257 98.7129 9.01909 98.4641 9.01909L97.9309 8.06971Z" fill="black"/>
</svg>
